<?xml version="1.0" standalone="no"?>
<!DOCTYPE svg PUBLIC "-//W3C//DTD SVG 20010904//EN"
 "http://www.w3.org/TR/2001/REC-SVG-20010904/DTD/svg10.dtd">
<svg version="1.0" xmlns="http://www.w3.org/2000/svg"
 width="904.000000pt" height="904.000000pt" viewBox="0 0 904.000000 904.000000"
 preserveAspectRatio="xMidYMid meet">
<metadata>
Created by potrace 1.11, written by Peter Selinger 2001-2013
</metadata>
<g transform="translate(0.000000,904.000000) scale(0.100000,-0.100000)"
fill="#000000" stroke="none">
<path d="M3400 8583 c-364 -34 -582 -80 -843 -179 -379 -144 -694 -349 -988
-643 -240 -241 -385 -442 -524 -726 -167 -342 -237 -644 -238 -1025 0 -352 54
-632 194 -995 155 -400 400 -775 738 -1126 l121 -127 0 -253 c0 -376 15 -564
66 -824 40 -201 147 -533 193 -595 25 -35 234 -197 366 -285 380 -252 782
-427 1260 -548 499 -127 847 -175 1316 -184 315 -6 494 3 725 37 667 98 1223
359 1602 754 309 322 262 554 -125 621 -115 20 -237 19 -423 -4 -397 -50 -469
-54 -940 -55 -473 -1 -586 5 -825 45 -611 102 -877 314 -1049 834 -138 419
-187 954 -189 2035 -1 590 6 704 57 980 135 724 495 1014 1131 910 357 -58
548 -203 623 -472 13 -49 17 -101 17 -228 -1 -191 0 -188 -126 -796 -154 -752
-191 -1002 -192 -1314 0 -190 12 -302 44 -410 18 -58 71 -170 82 -170 5 0 7 6
4 14 -48 124 -39 284 21 402 114 223 482 415 1077 561 11 3 -217 -233 -507
-523 l-528 -529 48 -32 c100 -68 251 -118 467 -155 187 -31 554 -31 770 0 497
71 844 226 1040 463 256 312 509 862 595 1294 6 33 18 70 26 82 7 12 23 95 35
185 18 138 20 196 16 378 -3 127 -12 252 -21 305 -65 370 -187 652 -404 933
-128 166 -156 184 -416 281 -243 92 -554 166 -871 208 -102 14 -204 17 -470
17 -357 0 -433 -6 -709 -56 l-119 -22 -16 24 c-88 134 -282 336 -424 442 -357
265 -806 422 -1342 468 -113 9 -266 11 -345 3z"/>
<path d="M505 4266 c-159 -37 -222 -96 -213 -200 12 -144 133 -250 265 -232
153 22 343 196 343 315 0 43 -45 86 -113 106 -74 23 -209 28 -282 11z"/>
<path d="M7894 2970 c-61 -9 -121 -28 -151 -48 -95 -61 96 -247 410 -397 465
-223 810 -226 873 -7 24 81 7 130 -70 207 -66 66 -145 109 -285 157 -221 75
-583 116 -777 88z"/>
</g>
</svg>
